<?xml version="1.0" encoding="UTF-8"?>
<!-- Generator: Adobe Illustrator 23.0.3, SVG Export Plug-In . SVG Version: 6.00 Build 0)  -->
<svg version="1.1" id="Layer_1" xmlns="http://www.w3.org/2000/svg" xmlns:xlink="http://www.w3.org/1999/xlink" x="0px" y="0px" viewBox="0 0 50 50" style="enable-background:new 0 0 50 50;" xml:space="preserve">
<style type="text/css">
	.st0{fill-rule:evenodd;clip-rule:evenodd;fill:#2D012C;}
	.st1{fill-rule:evenodd;clip-rule:evenodd;fill:#6F355A;}
	.st2{fill-rule:evenodd;clip-rule:evenodd;fill:#AF92A0;}
</style>
<g>
	<path class="st0" d="M21.918,38.812c5.747,2.182,11.967-0.036,15.459-4.329c-2.91,2.983-7.639,4.51-11.931,2.801   c-6.438-2.583-8.73-7.821-6.875-13.568c1.819-5.747,7.457-9.203,13.531-7.275c4.401,1.419,7.457,5.092,8.075,9.203   c-0.364-5.493-4.256-10.621-10.076-12.476c-7.493-2.401-15.532,1.419-17.787,8.475C10.096,28.7,14.57,36.048,21.918,38.812"/>
	<path class="st1" d="M35.158,24.626c0.436,6.438-4.474,12.076-10.912,12.513c-4.656,0.327-9.057-2.437-11.203-6.293   c2.401,5.347,8.148,9.203,14.332,8.803c7.93-0.546,13.968-7.457,13.459-15.386C40.251,16.296,34.685,18.188,35.158,24.626"/>
	<path class="st0" d="M21.263,44.414c8.221-0.364,14.986-5.893,17.387-13.277c-2.255,5.383-7.457,9.275-13.64,9.53   c-8.548,0.364-15.823-6.293-16.187-14.804C8.459,17.315,15.116,10.04,23.664,9.676c6.184-0.255,11.713,3.165,14.441,8.293   C35.085,10.804,27.847,5.893,19.626,6.257C9.114,6.73,0.893,15.678,1.366,26.19C1.803,36.666,10.751,44.887,21.263,44.414"/>
	<path class="st2" d="M42.251,22.953c-0.145-3.528-1.346-5.965-2.546-8.257c-0.582,0.837-1.091,1.528-1.564,2.182   c-2.837-3.965-7.566-6.438-12.767-6.075c-6.184,0.436-11.24,4.729-12.877,10.367c1.6-4.11,5.456-7.129,10.148-7.457   c13.895,0,12.658,12.986,9.094,18.587c-3.019,4.983-8.075,8.657-13.64,8.912c-6.693,0.291-12.586-3.419-15.532-9.13   C5.622,39.94,13.625,45.396,22.5,44.996C33.885,44.523,42.76,34.629,42.251,22.953"/>
	<path class="st1" d="M43.051,30.555c0.182-1.382,0.364-2.874,0.473-4.401c0-11.713-9.494-21.17-21.17-21.17   c-10.148,0-18.733,7.129-20.661,16.696c2.401-7.457,8.839-12.804,16.441-12.804c9.676,0,17.496,8.621,17.496,19.242   c0,2.037-1.164,17.532,13.022,16.078C47.707,43.904,40.942,43.977,43.051,30.555"/>
</g>
</svg>