<svg width="32" height="26" viewBox="0 0 32 26" fill="none" xmlns="http://www.w3.org/2000/svg">
<path d="M14.0222 23.0003C14.3088 17.3514 17.0518 12 23.0105 12C28.9692 12 31.7122 17.3514 31.9988 23.0003C32.0267 23.5519 31.5756 24 31.0225 24H14.9985C14.4454 24 13.9942 23.5519 14.0222 23.0003Z" fill="#2A4157" fill-opacity="0.24"/>
<path d="M0.00123531 23.0003C0.28782 17.3514 3.03084 12 8.9895 12C14.9482 12 17.6912 17.3514 17.9778 23.0003C18.0058 23.5519 17.5546 24 17.0015 24H0.977506C0.424393 24 -0.0267477 23.5519 0.00123531 23.0003Z" fill="#2A4157" fill-opacity="0.24"/>
<path d="M28.018 5C28.018 7.76142 25.7761 10 23.0105 10C20.2449 10 18.003 7.76142 18.003 5C18.003 2.23858 20.2449 0 23.0105 0C25.7761 0 28.018 2.23858 28.018 5Z" fill="#2A4157" fill-opacity="0.24"/>
<path d="M3.982 5C3.982 7.76142 6.22394 10 8.9895 10C11.7551 10 13.997 7.76142 13.997 5C13.997 2.23858 11.7551 0 8.9895 0C6.22394 0 3.982 2.23858 3.982 5Z" fill="#2A4157" fill-opacity="0.24"/>
<path d="M6.01303 25.0004C6.33142 19.3515 9.37922 14 16 14C22.6208 14 25.6686 19.3515 25.987 25.0004C26.018 25.5518 25.5666 26 25.0135 26H6.9865C6.43339 26 5.98195 25.5518 6.01303 25.0004Z" fill="#222222"/>
<path d="M22.009 6C22.009 9.31371 19.3187 12 16 12C12.6813 12 9.991 9.31371 9.991 6C9.991 2.68629 12.6813 0 16 0C19.3187 0 22.009 2.68629 22.009 6Z" fill="#222222"/>
</svg>
